<svg xmlns="http://www.w3.org/2000/svg" viewBox="0 0 16 16" width="64" height="64" shape-rendering="crispEdges" role="img" aria-label="Wooden door tile"><rect width="16" height="16" fill="#2c1c15"/><rect x="0" y="0" width="16" height="1" fill="#71442d"/><rect x="0" y="1" width="2" height="1" fill="#71442d"/><rect x="2" y="1" width="12" height="1" fill="#b87745"/><rect x="14" y="1" width="2" height="1" fill="#71442d"/><rect x="0" y="2" width="2" height="1" fill="#71442d"/><rect x="2" y="2" width="1" height="1" fill="#b87745"/><rect x="3" y="2" width="10" height="1" fill="#71442d"/><rect x="13" y="2" width="1" height="1" fill="#b87745"/><rect x="14" y="2" width="2" height="1" fill="#71442d"/><rect x="0" y="3" width="2" height="1" fill="#71442d"/><rect x="2" y="3" width="1" height="1" fill="#b87745"/><rect x="3" y="3" width="10" height="1" fill="#71442d"/><rect x="13" y="3" width="1" height="1" fill="#b87745"/><rect x="14" y="3" width="2" height="1" fill="#71442d"/><rect x="0" y="4" width="2" height="1" fill="#71442d"/><rect x="2" y="4" width="1" height="1" fill="#b87745"/><rect x="3" y="4" width="2" height="1" fill="#71442d"/><rect x="5" y="4" width="6" height="1" fill="#b87745"/><rect x="11" y="4" width="2" height="1" fill="#71442d"/><rect x="13" y="4" width="1" height="1" fill="#b87745"/><rect x="14" y="4" width="2" height="1" fill="#71442d"/><rect x="0" y="5" width="2" height="1" fill="#71442d"/><rect x="2" y="5" width="1" height="1" fill="#b87745"/><rect x="3" y="5" width="2" height="1" fill="#71442d"/><rect x="5" y="5" width="6" height="1" fill="#b87745"/><rect x="11" y="5" width="2" height="1" fill="#71442d"/><rect x="13" y="5" width="1" height="1" fill="#b87745"/><rect x="14" y="5" width="2" height="1" fill="#71442d"/><rect x="0" y="6" width="2" height="1" fill="#71442d"/><rect x="2" y="6" width="1" height="1" fill="#b87745"/><rect x="3" y="6" width="2" height="1" fill="#71442d"/><rect x="5" y="6" width="6" height="1" fill="#b87745"/><rect x="11" y="6" width="2" height="1" fill="#71442d"/><rect x="13" y="6" width="1" height="1" fill="#b87745"/><rect x="14" y="6" width="2" height="1" fill="#71442d"/><rect x="0" y="7" width="2" height="1" fill="#71442d"/><rect x="2" y="7" width="1" height="1" fill="#b87745"/><rect x="3" y="7" width="2" height="1" fill="#71442d"/><rect x="5" y="7" width="6" height="1" fill="#b87745"/><rect x="11" y="7" width="2" height="1" fill="#71442d"/><rect x="13" y="7" width="1" height="1" fill="#b87745"/><rect x="14" y="7" width="2" height="1" fill="#71442d"/><rect x="0" y="8" width="2" height="1" fill="#71442d"/><rect x="2" y="8" width="1" height="1" fill="#b87745"/><rect x="3" y="8" width="2" height="1" fill="#71442d"/><rect x="5" y="8" width="6" height="1" fill="#b87745"/><rect x="11" y="8" width="2" height="1" fill="#71442d"/><rect x="13" y="8" width="1" height="1" fill="#b87745"/><rect x="14" y="8" width="2" height="1" fill="#71442d"/><rect x="0" y="9" width="2" height="1" fill="#71442d"/><rect x="2" y="9" width="1" height="1" fill="#b87745"/><rect x="3" y="9" width="2" height="1" fill="#71442d"/><rect x="5" y="9" width="6" height="1" fill="#b87745"/><rect x="11" y="9" width="2" height="1" fill="#71442d"/><rect x="13" y="9" width="1" height="1" fill="#b87745"/><rect x="14" y="9" width="2" height="1" fill="#71442d"/><rect x="0" y="10" width="2" height="1" fill="#71442d"/><rect x="2" y="10" width="1" height="1" fill="#b87745"/><rect x="3" y="10" width="2" height="1" fill="#71442d"/><rect x="5" y="10" width="6" height="1" fill="#b87745"/><rect x="11" y="10" width="2" height="1" fill="#71442d"/><rect x="13" y="10" width="1" height="1" fill="#b87745"/><rect x="14" y="10" width="2" height="1" fill="#71442d"/><rect x="0" y="11" width="2" height="1" fill="#71442d"/><rect x="2" y="11" width="1" height="1" fill="#b87745"/><rect x="3" y="11" width="2" height="1" fill="#71442d"/><rect x="5" y="11" width="5" height="1" fill="#b87745"/><rect x="10" y="11" width="1" height="1" fill="#f2d49d"/><rect x="11" y="11" width="2" height="1" fill="#71442d"/><rect x="13" y="11" width="1" height="1" fill="#b87745"/><rect x="14" y="11" width="2" height="1" fill="#71442d"/><rect x="0" y="12" width="2" height="1" fill="#71442d"/><rect x="2" y="12" width="1" height="1" fill="#b87745"/><rect x="3" y="12" width="2" height="1" fill="#71442d"/><rect x="5" y="12" width="6" height="1" fill="#b87745"/><rect x="11" y="12" width="2" height="1" fill="#71442d"/><rect x="13" y="12" width="1" height="1" fill="#b87745"/><rect x="14" y="12" width="2" height="1" fill="#71442d"/><rect x="0" y="13" width="2" height="1" fill="#71442d"/><rect x="2" y="13" width="1" height="1" fill="#b87745"/><rect x="3" y="13" width="10" height="1" fill="#71442d"/><rect x="13" y="13" width="1" height="1" fill="#b87745"/><rect x="14" y="13" width="2" height="1" fill="#71442d"/><rect x="0" y="14" width="2" height="1" fill="#71442d"/><rect x="2" y="14" width="12" height="1" fill="#b87745"/><rect x="14" y="14" width="2" height="1" fill="#71442d"/><rect x="0" y="15" width="16" height="1" fill="#71442d"/></svg>
